<?xml version="1.0" encoding="iso-8859-1"?>
<!-- Generator: Adobe Illustrator 19.0.0, SVG Export Plug-In . SVG Version: 6.00 Build 0)  -->
<svg version="1.1" id="Capa_1" xmlns="http://www.w3.org/2000/svg" xmlns:xlink="http://www.w3.org/1999/xlink" x="0px" y="0px"
	 viewBox="0 0 458.553 458.553" style="enable-background:new 0 0 458.553 458.553;" xml:space="preserve">
<g>
	<g>
		<path d="M380.876,94.553c-2.4-2-6.8-2-9.2,0.4c-2.4,2.4-2.4,6.8,0,9.2c37.6,37.6,58,88,58,141.2c0,110.4-90,200.4-200.4,200.4
			s-200.4-89.6-200.4-200s90-200.4,200.4-200.4c10.8,0,22,0.8,32.8,2.8l-29.2,18c-3.2,2-4,6-2,9.2c1.2,2,3.6,3.2,5.6,3.2
			c1.2,0,2.4-0.4,3.6-0.8l43.2-26.8c0,0,0,0,0.4-0.4c0.4-0.4,0.8-0.8,1.2-1.2l0.4-0.4c0,0,0,0,0-0.4c0.4-0.4,0.4-1.2,0.8-1.6v-0.4
			c0-0.8,0-1.6,0-2.4c0-0.4,0-0.4,0-0.8c0-0.4-0.4-1.2-0.8-1.6v-0.4l-0.4-0.4c0-0.4-0.4-0.4-0.4-0.8l-34.8-38
			c-2.4-2.8-6.8-2.8-9.2-0.4c-2.8,2.4-2.8,6.8-0.4,9.2l21.2,22.8c-10.4-1.6-21.2-2.4-32-2.4c-117.6,0-213.6,96-213.6,213.6
			s96,213.6,213.6,213.6s213.6-96,213.6-213.6C442.876,188.153,420.876,134.953,380.876,94.553z"/>
	</g>
</g>
<g>
	<g>
		<path d="M354.876,287.353v-83.2c10-3.2,17.6-12.4,17.6-23.2c0-13.2-10.8-24-24-24c-6.4,0-12.4,2.8-16.8,6.8l-72-41.6
			c0.4-2,0.8-3.6,0.8-6c0-13.2-10.8-24-24-24s-24,10.8-24,24c0,2,0.4,4,0.8,6l-72,41.6c-4.4-4-10-6.8-16.8-6.8
			c-13.2,0-24,10.8-24,24c0,10.8,7.6,20,17.6,23.2v83.2c-10,2.8-17.6,12-17.6,23.2c0,13.2,10.8,24,24,24c6.4,0,12.4-2.8,16.8-6.8
			l72,41.6c-0.4,2-0.8,4-0.8,6c0,13.2,10.8,24,24,24s24-10.8,24-24c0-2-0.4-4-0.8-6l72-41.6c4.4,4,10,6.8,16.8,6.8
			c13.2,0,24-10.8,24-24C372.476,299.753,365.276,290.553,354.876,287.353z M131.276,287.353v-83.2c3.6-1.2,7.2-3.2,10-6l72,41.6
			c-0.4,2-0.8,4-0.8,6s0.4,4,0.8,6l-72,41.2C138.476,290.153,134.876,288.153,131.276,287.353z M229.676,351.753
			c-4,1.2-7.2,3.2-10,5.6l-72-41.6c0.4-2,0.8-3.6,0.8-6c0-1.6-0.4-3.6-0.8-5.2l72-41.6c2.8,2.8,6.4,4.8,10,5.6V351.753z
			 M229.676,222.553c-4,1.2-7.2,3.2-10,5.6l-72-41.6c0.4-2,0.8-3.6,0.8-6c0-2-0.4-4-0.8-6l72-41.6c2.8,3.2,6.4,5.2,10,6.4V222.553z
			 M242.876,139.353c4-1.2,7.2-3.2,10-5.6l72,41.6c-0.4,2-0.8,3.6-0.8,6c0,1.6,0.4,3.6,0.8,5.6l-72,41.6c-2.8-2.8-6.4-4.8-10-5.6
			V139.353z M341.676,286.553c-10,3.6-17.6,12.8-17.6,23.6c0,2,0.4,4,0.8,6l-72,41.6c-2.8-2.8-6.4-4.8-10-5.6v-83.6
			c10-2.8,17.6-12,17.6-23.2c0-2-0.4-4-0.8-6l72-41.6c2.8,2.8,6.4,4.8,10,5.6V286.553z"/>
	</g>
</g>
<g>
</g>
<g>
</g>
<g>
</g>
<g>
</g>
<g>
</g>
<g>
</g>
<g>
</g>
<g>
</g>
<g>
</g>
<g>
</g>
<g>
</g>
<g>
</g>
<g>
</g>
<g>
</g>
<g>
</g>
</svg>
